
        <svg xmlns="http://www.w3.org/2000/svg" xmlns:xlink="http://www.w3.org/1999/xlink" version="1.1" width="3187.5" 
        height="1135.5894524061155" viewBox="0 0 3187.5 1135.5894524061155">
			<rect fill="#ffffff" width="3187.5" height="1135.5894524061155"/>
			<g transform="scale(9.375) translate(10, 10)">
				<defs id="SvgjsDefs1415"></defs><g id="SvgjsG1416" featureKey="JKiIdh-0" transform="matrix(1.2953368387701336,0,0,1.2953368387701336,-15.284978650541895,-13.24870522647147)" fill="#000000"><path xmlns="http://www.w3.org/2000/svg" d="M50.4,88.3C71.7,88.3,89,70.9,89,49.6S71.7,11,50.4,11c-21.3,0-38.6,17.3-38.6,38.6S29.1,88.3,50.4,88.3z M50.4,13  C70.6,13,87,29.4,87,49.6S70.6,86.3,50.4,86.3S13.7,69.8,13.7,49.6S30.2,13,50.4,13z"></path><path xmlns="http://www.w3.org/2000/svg" d="M50.4,83.8c18.9,0,34.2-15.3,34.2-34.2S69.2,15.4,50.4,15.4S16.1,30.8,16.1,49.6S31.5,83.8,50.4,83.8z M50.4,17.4  c17.8,0,32.2,14.4,32.2,32.2S68.1,81.8,50.4,81.8c-17.8,0-32.2-14.4-32.2-32.2S32.6,17.4,50.4,17.4z"></path><path xmlns="http://www.w3.org/2000/svg" d="M49.2,50.6v14.3c-3.3-0.6-5.8-3.5-5.8-7c0-0.6-0.4-1-1-1s-1,0.4-1,1c0,4.6,3.4,8.4,7.8,9.1v2.7c0,0.6,0.4,1,1,1s1-0.4,1-1  v-2.6c4.7-0.3,8.5-4.3,8.5-9.1c0-4.8-3.8-8.8-8.5-9.1V34.4c3.5,0.5,6.2,3.5,6.2,7.1c0,0.6,0.4,1,1,1s1-0.4,1-1  c0-4.7-3.6-8.6-8.2-9.1v-2.6c0-0.6-0.4-1-1-1s-1,0.4-1,1v2.6c-4.6,0.5-8.2,4.4-8.2,9.1C41,46.2,44.6,50.1,49.2,50.6z M57.7,57.8  c0,3.7-2.9,6.8-6.5,7.1V50.7C54.8,51,57.7,54.1,57.7,57.8z M49.2,34.4v14.2C45.7,48,43,45.1,43,41.4S45.7,34.8,49.2,34.4z"></path></g><g id="SvgjsG1417" featureKey="A7DQL5-0" transform="matrix(6.414368121952861,0,0,6.414368121952861,120.00000083633842,-27.19691936894778)" fill="#000000"><path d="M1.38 4.24 l-1.38 0 l0 0.64 l0.9 0 l0.44 0 c1.64 0 2.8734 0.47334 3.7 1.42 s1.24 2.18 1.24 3.7 l0 0.22 c0 1.4933 -0.41334 2.7134 -1.24 3.66 s-2.06 1.42 -3.7 1.42 l-0.64 0 l0 0 l-0.44 0 l-0.22 0 l-0.04 0 l0 4.7 l0.7 0 l0 -4.04 l0.68 0 c1.84 0 3.2366 -0.54334 4.19 -1.63 s1.43 -2.45 1.43 -4.09 l0 -0.26 c0 -1.64 -0.48334 -3.0066 -1.45 -4.1 s-2.3566 -1.64 -4.17 -1.64 z M14.94 6.140000000000001 c0 0.08 0.23666 0.84334 0.71 2.29 s0.99 3.03 1.55 4.75 s1.3133 3.9934 2.26 6.82 l0.86 0 l-5.3 -15.76 l-0.16 0 l-5.26 15.76 l0.82 0 z M14.58 15.52 l-0.72 0 l1.2 4.48 l0.72 0 z M31.18 4.24 l-0.86 0 l-3.78 10.2 l0 5.56 l0.84 0 l0 -5.56 z M24.340000000000003 5.699999999999999 l-0.54 -1.46 l-0.88 0 l0.56 1.46 l0.86 0 z"></path></g>
			</g>
		</svg>
	